<svg width="26" height="15" viewBox="0 0 26 15" fill="none" xmlns="http://www.w3.org/2000/svg">
<path d="M10.3111 10.607C10.3831 10.607 10.4551 10.622 10.5271 10.652C10.5991 10.676 10.6681 10.721 10.7341 10.787L11.9401 12.056C11.4121 12.746 10.7491 13.268 9.9511 13.622C9.1591 13.97 8.2201 14.144 7.1341 14.144C6.1381 14.144 5.2441 13.976 4.4521 13.64C3.6661 13.298 2.9971 12.83 2.4451 12.236C1.8991 11.636 1.4791 10.928 1.1851 10.112C0.891102 9.29 0.744102 8.399 0.744102 7.439C0.744102 6.461 0.903102 5.564 1.2211 4.748C1.5391 3.926 1.9861 3.218 2.5621 2.624C3.1381 2.03 3.8281 1.568 4.6321 1.238C5.4361 0.907999 6.3211 0.743 7.2871 0.743C7.7791 0.743 8.2411 0.788 8.6731 0.877999C9.1111 0.961999 9.5191 1.082 9.8971 1.238C10.2751 1.388 10.6231 1.571 10.9411 1.787C11.2591 2.003 11.5411 2.237 11.7871 2.489L10.7611 3.866C10.6951 3.95 10.6171 4.028 10.5271 4.1C10.4371 4.166 10.3111 4.199 10.1491 4.199C10.0411 4.199 9.9391 4.175 9.8431 4.127C9.7471 4.079 9.6451 4.022 9.5371 3.956C9.4291 3.884 9.3091 3.809 9.1771 3.731C9.0511 3.647 8.8981 3.572 8.7181 3.506C8.5441 3.434 8.3371 3.374 8.0971 3.326C7.8631 3.278 7.5871 3.254 7.2691 3.254C6.7651 3.254 6.3031 3.347 5.8831 3.533C5.4691 3.719 5.1091 3.992 4.8031 4.352C4.5031 4.706 4.2691 5.144 4.1011 5.666C3.9391 6.182 3.8581 6.773 3.8581 7.439C3.8581 8.111 3.9481 8.708 4.1281 9.23C4.3141 9.752 4.5631 10.193 4.8751 10.553C5.1931 10.907 5.5621 11.177 5.9821 11.363C6.4021 11.549 6.8521 11.642 7.3321 11.642C7.6081 11.642 7.8601 11.63 8.0881 11.606C8.3161 11.576 8.5291 11.531 8.7271 11.471C8.9251 11.405 9.1111 11.321 9.2851 11.219C9.4591 11.111 9.6361 10.976 9.8161 10.814C9.8881 10.754 9.9661 10.706 10.0501 10.67C10.1341 10.628 10.2211 10.607 10.3111 10.607ZM25.031 0.887L19.775 14H17.021L11.765 0.887H14.213C14.477 0.887 14.69 0.95 14.852 1.076C15.014 1.196 15.137 1.352 15.221 1.544L17.759 8.564C17.879 8.87 17.996 9.206 18.11 9.572C18.224 9.932 18.332 10.31 18.434 10.706C18.518 10.31 18.611 9.932 18.713 9.572C18.821 9.206 18.935 8.87 19.055 8.564L21.575 1.544C21.641 1.376 21.758 1.226 21.926 1.094C22.1 0.956 22.313 0.887 22.565 0.887H25.031Z" fill="white"/>
</svg>
